<svg preserveAspectRatio="none" width="100%" height="100%" overflow="visible" style="display: block;" viewBox="0 0 12.3956 18" fill="none" xmlns="http://www.w3.org/2000/svg">
<path id="Vector" d="M7.68126 7.10062C6.22978 6.41941 5.03421 5.87044 5.03421 4.75646C5.03421 3.90695 5.71396 3.28584 7.05349 3.28584C7.54531 3.28584 7.94917 3.34595 8.36902 3.42208C8.58494 3.45815 8.82086 3.49021 9.01279 3.49021C10.1844 3.49021 10.8441 2.78896 11.284 1.4626L11.4679 0.921639C11.28 0.841496 9.36466 0 6.86955 0C2.89897 0 0.799715 2.55254 0.803714 5.20125C0.803714 6.53963 1.21957 7.50534 1.87533 8.2667C2.71903 9.24844 3.9186 9.88958 5.0382 10.4386C6.67362 11.244 8.15309 11.837 8.15309 13.0312C8.15309 14.089 7.06148 14.6901 5.606 14.6901C3.60671 14.6901 1.86334 13.5441 1.63942 13.4078L0 16.4893C0.291896 16.6576 2.40314 18 5.8819 18C9.58858 18 12.3956 15.8682 12.3956 12.5904C12.3956 9.31256 9.79651 8.12244 7.68926 7.10062H7.68126Z" fill="var(--fill-0, black)"/>
</svg>
