<svg preserveAspectRatio="none" width="100%" height="100%" overflow="visible" style="display: block;" viewBox="0 0 8.57295 9.8976" fill="none" xmlns="http://www.w3.org/2000/svg">
<path id="Vector" d="M4.25049 0.00400722C1.94731 0.00400722 0 1.88335 0 4.96082C0 8.03829 1.88333 9.8976 4.70233 9.8976C6.94153 9.8976 8.10511 8.91585 8.24506 8.82369C8.24506 8.82369 8.02514 8.46705 7.96516 8.36688C7.64927 7.84996 7.2894 7.68566 6.89754 7.68566C6.10582 7.68566 6.00186 8.01425 4.92625 8.01425C3.0829 8.01425 2.44313 6.57168 2.39914 5.60997H8.57295V4.8927C8.57295 1.94345 6.87755 0 4.25049 0V0.00400722ZM2.39515 3.90294C2.39515 2.82102 3.15088 1.81523 4.2145 1.81523C5.40208 1.81523 6.05784 2.84907 6.07783 3.90294H2.39515Z" fill="var(--fill-0, black)"/>
</svg>
