<svg preserveAspectRatio="none" width="100%" height="100%" overflow="visible" style="display: block;" viewBox="0 0 14.8027 9.68923" fill="none" xmlns="http://www.w3.org/2000/svg">
<path id="Vector" d="M11.6239 0C9.54459 0 8.47698 1.37044 8.30904 1.57881C7.78522 0.589047 6.82157 0 5.55402 0C3.72267 0 2.68304 1.06589 2.5151 1.2382C2.43913 0.953695 2.06726 0.176313 0.883682 0.176313C0.543803 0.176313 0.0439843 0.284506 0 0.296527C0.0479829 0.520926 0.2719 1.60285 0.2719 3.09751V9.68522H2.67504V2.97329C2.72302 2.92921 3.6227 2.01959 4.70632 2.01959C5.78993 2.01959 6.32574 2.82903 6.32574 3.935V9.68923H8.74088V2.97329C8.78886 2.9252 9.67255 2.01959 10.7722 2.01959C11.8718 2.01959 12.3756 2.82903 12.3756 3.935V9.68923H14.8027V3.55833C14.8027 1.4065 13.5792 0.00801367 11.6239 0.00801367V0Z" fill="var(--fill-0, black)"/>
</svg>
