<svg preserveAspectRatio="none" width="100%" height="100%" overflow="visible" style="display: block;" viewBox="0 0 8.28904 9.89359" fill="none" xmlns="http://www.w3.org/2000/svg">
<path id="Vector" d="M5.21814 7.94613C3.58272 7.94613 2.41514 6.65183 2.41514 4.96082C2.41514 3.07747 3.74266 1.95548 5.21414 1.95548C6.00986 1.95548 6.34574 2.1959 6.86955 2.1959C7.43335 2.1959 7.73324 1.92342 8.00915 1.37845C8.16109 1.07792 8.25306 0.90561 8.25306 0.90561C8.1331 0.829475 6.91353 0 4.84627 0C1.81535 0 0 2.17587 0 4.95681C0 7.9902 2.07526 9.89359 4.84627 9.89359C6.85755 9.89359 8.07312 9.07213 8.28904 8.91986L7.45334 7.26892C7.26941 7.38513 6.40972 7.94212 5.21014 7.94212L5.21814 7.94613Z" fill="var(--fill-0, black)"/>
</svg>
