<svg preserveAspectRatio="none" width="100%" height="100%" overflow="visible" style="display: block;" viewBox="0 0 8.57694 9.8976" fill="none" xmlns="http://www.w3.org/2000/svg">
<path id="Vector" d="M4.25048 0.00400722C1.9473 0.00400722 0 1.88335 0 4.96082C0 8.03829 1.88733 9.8976 4.70632 9.8976C6.94552 9.8976 8.10911 8.91585 8.24906 8.82369C8.24906 8.82369 8.02914 8.46705 7.96916 8.36688C7.65327 7.84996 7.2974 7.68566 6.90154 7.68566C6.10982 7.68566 6.00586 8.01425 4.93024 8.01425C3.0869 8.01425 2.44713 6.57168 2.40314 5.60997H8.57694V4.8927C8.57694 1.94345 6.88155 0 4.25448 0L4.25048 0.00400722ZM2.39115 3.90294C2.39115 2.82102 3.15088 1.81523 4.2105 1.81523C5.39808 1.81523 6.05384 2.84907 6.07383 3.90294H2.39115Z" fill="var(--fill-0, black)"/>
</svg>
